<svg version="1.1" id="Layer_1" xmlns="http://www.w3.org/2000/svg" xmlns:xlink="http://www.w3.org/1999/xlink" x="0px" y="0px"
	 width="100%" viewBox="0 0 546 364" enable-background="new 0 0 546 364" xml:space="preserve">
<path fill="#FFFFFE" opacity="1.000000" stroke="none" 
	d="
M305.000000,365.000000 
	C203.361115,365.000000 102.222214,365.000000 1.041661,365.000000 
	C1.041661,243.727768 1.041661,122.455513 1.041661,1.091627 
	C182.888916,1.091627 364.777893,1.091627 546.833435,1.091627 
	C546.833435,122.333153 546.833435,243.666550 546.833435,365.000000 
	C466.455475,365.000000 385.977753,365.000000 305.000000,365.000000 
M132.265396,259.156189 
	C138.323853,261.479614 144.349045,263.894806 150.447937,266.106750 
	C161.855972,270.244202 173.096756,275.062775 184.791245,278.136536 
	C200.522415,282.271332 216.730423,266.902344 214.584946,250.838882 
	C213.330170,241.444153 212.085205,232.047531 210.735931,222.666122 
	C204.818542,181.522827 198.943085,140.373199 192.867889,99.253120 
	C191.384705,89.214043 186.089676,81.377594 176.422379,77.656349 
	C167.761322,74.322418 159.258224,75.662086 152.012146,81.692169 
	C138.967392,92.547836 126.065880,103.576897 113.172150,114.612526 
	C88.132652,136.043610 63.154339,157.546173 38.119564,178.982803 
	C30.109734,185.841415 25.686577,194.308701 27.344730,204.944290 
	C29.088634,216.129883 35.902935,223.175293 46.542522,227.100372 
	C74.922058,237.569992 103.198990,248.317749 132.265396,259.156189 
M431.217255,226.319138 
	C441.763153,231.811768 453.091339,233.202820 464.668884,231.857346 
	C483.406616,229.679764 497.302704,220.308228 505.120300,202.801849 
	C511.303406,188.955704 512.196167,174.518799 508.960205,159.854233 
	C498.540039,112.632545 445.250000,109.119980 422.592804,129.149643 
	C409.501007,140.723160 403.841125,155.613144 403.538330,172.554031 
	C403.138062,194.947632 409.515594,214.274597 431.217255,226.319138 
M238.269135,100.295593 
	C237.211914,102.136528 235.240570,103.973267 235.232101,105.819008 
	C235.053955,144.605240 235.079773,183.392487 235.117569,222.179504 
	C235.122910,227.654739 237.061920,229.612289 242.653305,229.834808 
	C247.307358,230.019989 251.972961,229.931152 256.633484,229.933731 
	C272.281494,229.942383 287.929565,229.970444 303.577423,229.921692 
	C309.718201,229.902557 310.920898,228.643295 310.941620,222.684540 
	C310.956665,218.356430 310.961700,214.028137 310.940552,209.700058 
	C310.910675,203.587357 309.510315,202.191376 303.225403,202.170090 
	C292.405121,202.133423 281.584442,202.184875 270.764252,202.134827 
	C264.763489,202.107071 263.880737,201.197662 263.868774,195.102646 
	C263.839691,180.287048 263.861816,165.471359 263.861694,150.655701 
	C263.861572,136.339447 263.894562,122.023071 263.841431,107.707008 
	C263.819031,101.673737 262.122742,100.062866 256.116028,100.057968 
	C250.456650,100.053352 244.797241,100.088997 238.269135,100.295593 
M365.192993,180.500031 
	C365.124176,198.307907 365.165680,216.117157 364.942535,233.923096 
	C364.821167,243.608673 362.141022,246.563080 352.743317,248.234344 
	C349.555115,248.801315 347.602753,250.052856 347.773712,253.735168 
	C347.997009,258.543976 347.670898,263.384979 348.045441,268.175812 
	C348.149048,269.501160 349.860626,271.756073 350.903229,271.796173 
	C370.042511,272.532349 386.298645,267.703674 390.730286,246.483734 
	C392.644531,237.317673 392.751129,227.677887 392.842590,218.245193 
	C393.131378,188.454483 393.046143,158.659958 393.053101,128.866898 
	C393.054504,122.879486 392.115631,121.961990 386.624084,121.926033 
	C381.963898,121.895523 377.303314,121.910515 372.642975,121.921036 
	C366.152313,121.935699 365.604797,122.376404 365.535614,129.070755 
	C365.361877,145.879883 365.300598,162.690201 365.192993,180.500031 
M322.986176,167.500000 
	C322.985596,186.139557 323.084778,204.780014 322.915985,223.418045 
	C322.872467,228.222504 324.875458,230.076096 329.443542,229.958542 
	C333.601379,229.851562 337.764160,229.945190 341.924774,229.940216 
	C349.670319,229.930969 350.824341,228.891846 350.845856,220.986420 
	C350.914734,195.690231 350.899658,170.393753 350.887115,145.097397 
	C350.884399,139.605942 350.802795,134.113495 350.674011,128.623459 
	C350.565887,124.015656 348.476562,121.588501 343.509857,121.866737 
	C339.030304,122.117691 334.525635,121.895363 330.032471,121.933624 
	C324.434998,121.981293 323.020172,123.367264 322.999847,129.054565 
	C322.955353,141.536240 322.986115,154.018173 322.986176,167.500000 
M325.590027,103.997528 
	C332.548981,109.872055 344.397308,107.626244 349.111603,103.127487 
	C354.882782,97.620163 357.085785,88.622154 353.742249,81.667862 
	C350.259491,74.423851 344.443390,70.510788 336.350861,70.506493 
	C328.782104,70.502472 322.157166,75.288002 319.407990,82.361618 
	C316.533478,89.757812 318.605743,97.575294 325.590027,103.997528 
z"/>
<path fill="#F9C92D" opacity="1.000000" stroke="none" 
	d="
M131.891052,259.055542 
	C103.198990,248.317749 74.922058,237.569992 46.542522,227.100372 
	C35.902935,223.175293 29.088634,216.129883 27.344730,204.944290 
	C25.686577,194.308701 30.109734,185.841415 38.119564,178.982803 
	C63.154339,157.546173 88.132652,136.043610 113.172150,114.612526 
	C126.065880,103.576897 138.967392,92.547836 152.012146,81.692169 
	C159.258224,75.662086 167.761322,74.322418 176.422379,77.656349 
	C186.089676,81.377594 191.384705,89.214043 192.867889,99.253120 
	C198.943085,140.373199 204.818542,181.522827 210.735931,222.666122 
	C212.085205,232.047531 213.330170,241.444153 214.584946,250.838882 
	C216.730423,266.902344 200.522415,282.271332 184.791245,278.136536 
	C173.096756,275.062775 161.855972,270.244202 150.447937,266.106750 
	C144.349045,263.894806 138.323853,261.479614 131.891052,259.055542 
M152.895920,233.579788 
	C152.914352,234.243027 152.902222,234.908752 152.955994,235.569122 
	C153.459518,241.752426 157.064392,245.527084 162.593246,247.647018 
	C168.850433,250.046219 174.664032,249.289062 179.646454,244.583908 
	C184.162094,240.319595 185.526505,235.179291 183.525162,229.219345 
	C181.124420,222.070099 174.646500,218.213104 166.263336,218.966324 
	C159.227478,219.598495 154.106308,224.876236 152.895920,233.579788 
z"/>
<path fill="#252042" opacity="1.000000" stroke="none" 
	d="
M430.871979,226.175903 
	C409.515594,214.274597 403.138062,194.947632 403.538330,172.554031 
	C403.841125,155.613144 409.501007,140.723160 422.592804,129.149643 
	C445.250000,109.119980 498.540039,112.632545 508.960205,159.854233 
	C512.196167,174.518799 511.303406,188.955704 505.120300,202.801849 
	C497.302704,220.308228 483.406616,229.679764 464.668884,231.857346 
	C453.091339,233.202820 441.763153,231.811768 430.871979,226.175903 
M481.102325,172.623550 
	C480.173370,167.583847 479.747070,162.384293 478.206482,157.539047 
	C475.360138,148.586990 468.886566,143.691727 459.434601,142.921463 
	C449.122406,142.081055 440.783447,145.655960 436.504791,155.258530 
	C430.547485,168.628510 430.492188,182.394928 436.870605,195.745316 
	C441.073822,204.542938 448.815338,207.908875 458.184204,207.619492 
	C467.768524,207.323441 475.021851,202.761978 477.896179,193.575256 
	C479.890900,187.199814 480.100128,180.265732 481.102325,172.623550 
z"/>
<path fill="#272144" opacity="1.000000" stroke="none" 
	d="
M238.703491,100.201263 
	C244.797241,100.088997 250.456650,100.053352 256.116028,100.057968 
	C262.122742,100.062866 263.819031,101.673737 263.841431,107.707008 
	C263.894562,122.023071 263.861572,136.339447 263.861694,150.655701 
	C263.861816,165.471359 263.839691,180.287048 263.868774,195.102646 
	C263.880737,201.197662 264.763489,202.107071 270.764252,202.134827 
	C281.584442,202.184875 292.405121,202.133423 303.225403,202.170090 
	C309.510315,202.191376 310.910675,203.587357 310.940552,209.700058 
	C310.961700,214.028137 310.956665,218.356430 310.941620,222.684540 
	C310.920898,228.643295 309.718201,229.902557 303.577423,229.921692 
	C287.929565,229.970444 272.281494,229.942383 256.633484,229.933731 
	C251.972961,229.931152 247.307358,230.019989 242.653305,229.834808 
	C237.061920,229.612289 235.122910,227.654739 235.117569,222.179504 
	C235.079773,183.392487 235.053955,144.605240 235.232101,105.819008 
	C235.240570,103.973267 237.211914,102.136528 238.703491,100.201263 
z"/>
<path fill="#272143" opacity="1.000000" stroke="none" 
	d="
M365.193604,180.000031 
	C365.300598,162.690201 365.361877,145.879883 365.535614,129.070755 
	C365.604797,122.376404 366.152313,121.935699 372.642975,121.921036 
	C377.303314,121.910515 381.963898,121.895523 386.624084,121.926033 
	C392.115631,121.961990 393.054504,122.879486 393.053101,128.866898 
	C393.046143,158.659958 393.131378,188.454483 392.842590,218.245193 
	C392.751129,227.677887 392.644531,237.317673 390.730286,246.483734 
	C386.298645,267.703674 370.042511,272.532349 350.903229,271.796173 
	C349.860626,271.756073 348.149048,269.501160 348.045441,268.175812 
	C347.670898,263.384979 347.997009,258.543976 347.773712,253.735168 
	C347.602753,250.052856 349.555115,248.801315 352.743317,248.234344 
	C362.141022,246.563080 364.821167,243.608673 364.942535,233.923096 
	C365.165680,216.117157 365.124176,198.307907 365.193604,180.000031 
z"/>
<path fill="#262042" opacity="1.000000" stroke="none" 
	d="
M322.986145,167.000000 
	C322.986115,154.018173 322.955353,141.536240 322.999847,129.054565 
	C323.020172,123.367264 324.434998,121.981293 330.032471,121.933624 
	C334.525635,121.895363 339.030304,122.117691 343.509857,121.866737 
	C348.476562,121.588501 350.565887,124.015656 350.674011,128.623459 
	C350.802795,134.113495 350.884399,139.605942 350.887115,145.097397 
	C350.899658,170.393753 350.914734,195.690231 350.845856,220.986420 
	C350.824341,228.891846 349.670319,229.930969 341.924774,229.940216 
	C337.764160,229.945190 333.601379,229.851562 329.443542,229.958542 
	C324.875458,230.076096 322.872467,228.222504 322.915985,223.418045 
	C323.084778,204.780014 322.985596,186.139557 322.986145,167.000000 
z"/>
<path fill="#F8C932" opacity="1.000000" stroke="none" 
	d="
M325.305481,103.766853 
	C318.605743,97.575294 316.533478,89.757812 319.407990,82.361618 
	C322.157166,75.288002 328.782104,70.502472 336.350861,70.506493 
	C344.443390,70.510788 350.259491,74.423851 353.742249,81.667862 
	C357.085785,88.622154 354.882782,97.620163 349.111603,103.127487 
	C344.397308,107.626244 332.548981,109.872055 325.305481,103.766853 
z"/>
<path fill="#FEFDF4" opacity="1.000000" stroke="none" 
	d="
M152.903473,233.153320 
	C154.106308,224.876236 159.227478,219.598495 166.263336,218.966324 
	C174.646500,218.213104 181.124420,222.070099 183.525162,229.219345 
	C185.526505,235.179291 184.162094,240.319595 179.646454,244.583908 
	C174.664032,249.289062 168.850433,250.046219 162.593246,247.647018 
	C157.064392,245.527084 153.459518,241.752426 152.955994,235.569122 
	C152.902222,234.908752 152.914352,234.243027 152.903473,233.153320 
z"/>
<path fill="#FDFCFD" opacity="1.000000" stroke="none" 
	d="
M481.104706,173.102386 
	C480.100128,180.265732 479.890900,187.199814 477.896179,193.575256 
	C475.021851,202.761978 467.768524,207.323441 458.184204,207.619492 
	C448.815338,207.908875 441.073822,204.542938 436.870605,195.745316 
	C430.492188,182.394928 430.547485,168.628510 436.504791,155.258530 
	C440.783447,145.655960 449.122406,142.081055 459.434601,142.921463 
	C468.886566,143.691727 475.360138,148.586990 478.206482,157.539047 
	C479.747070,162.384293 480.173370,167.583847 481.104706,173.102386 
z"/>
</svg>